<svg aria-hidden="true" style="position: absolute; width: 0; height: 0; overflow: hidden;" version="1.1" xmlns="http://www.w3.org/2000/svg" xmlns:xlink="http://www.w3.org/1999/xlink">
<defs>
<symbol id="icon-search" viewBox="0 0 20 18">
<path d="M7.465 0c1.98 0 3.879 0.704 5.279 1.958s2.186 2.954 2.186 4.728c0 1.656-0.678 3.178-1.792 4.351l0.31 0.278h0.907l5.742 5.143-1.723 1.543-5.742-5.143v-0.813l-0.31-0.278c-1.309 0.998-3.009 1.605-4.858 1.605-1.98 0-3.879-0.704-5.278-1.958s-2.186-2.954-2.186-4.727c0-1.773 0.786-3.474 2.186-4.728s3.299-1.958 5.278-1.958zM7.465 2.057c-2.871 0-5.168 2.057-5.168 4.629s2.297 4.629 5.168 4.629 5.168-2.057 5.168-4.629c0-2.571-2.297-4.629-5.168-4.629z"></path>
</symbol>
<symbol id="icon-loc" viewBox="0 0 22 24">
<path d="M2.608 20.48l6.564-4.941c0.801-0.603 1.905-0.603 2.706 0l6.564 4.941-7.917-17.877-7.917 17.877zM9.839 0.446c0.264-0.595 1.108-0.595 1.372 0l9.771 22.064c0.313 0.707-0.519 1.368-1.137 0.903l-8.869-6.676c-0.267-0.201-0.635-0.201-0.902 0l-8.869 6.676c-0.618 0.465-1.45-0.196-1.137-0.903l9.771-22.064z"></path>
</symbol>
</defs>
</svg>
